<svg xmlns="http://www.w3.org/2000/svg" viewBox="0 0 64 64" width="64" height="64" aria-hidden="true">
  <defs>
    <linearGradient id="g-ten" x1="0" x2="1">
      <stop offset="0" stop-color="#7b61ff"/>
      <stop offset="1" stop-color="#3ec6ff"/>
    </linearGradient>
  </defs>
  <rect width="64" height="64" rx="8" fill="transparent"/>
  <!-- Building / rows (tenant isolation) -->
  <rect x="8" y="14" width="20" height="36" rx="3" fill="url(#g-ten)" opacity="0.6"/>
  <rect x="36" y="14" width="20" height="36" rx="3" fill="url(#g-ten)" opacity="0.6"/>
  <!-- Windows -->
  <rect x="12" y="19" width="5" height="5" rx="1" fill="rgba(255,255,255,0.6)"/>
  <rect x="19" y="19" width="5" height="5" rx="1" fill="rgba(255,255,255,0.6)"/>
  <rect x="12" y="28" width="5" height="5" rx="1" fill="rgba(255,255,255,0.4)"/>
  <rect x="19" y="28" width="5" height="5" rx="1" fill="rgba(255,255,255,0.4)"/>
  <rect x="12" y="37" width="5" height="5" rx="1" fill="rgba(255,255,255,0.3)"/>
  <rect x="40" y="19" width="5" height="5" rx="1" fill="rgba(255,255,255,0.6)"/>
  <rect x="47" y="19" width="5" height="5" rx="1" fill="rgba(255,255,255,0.6)"/>
  <rect x="40" y="28" width="5" height="5" rx="1" fill="rgba(255,255,255,0.4)"/>
  <rect x="47" y="28" width="5" height="5" rx="1" fill="rgba(255,255,255,0.4)"/>
  <rect x="40" y="37" width="5" height="5" rx="1" fill="rgba(255,255,255,0.3)"/>
  <!-- Divider -->
  <line x1="32" y1="10" x2="32" y2="54" stroke="url(#g-ten)" stroke-width="1.5" stroke-dasharray="3,3" opacity="0.5"/>
</svg>
